HIERARCHY
ROOT Hips
{
  OFFSET 40.9192 92.6879 18.85
  CHANNELS 6 Xposition Yposition Zposition Zrotation Xrotation Yrotation
  JOINT LeftUpLeg
  {
    OFFSET 8.64259 1.95398 -2.38835
    CHANNELS 3 Zrotation Xrotation Yrotation
    JOINT LeftLeg
    {
      OFFSET 43.7702 0 0
      CHANNELS 3 Zrotation Xrotation Yrotation
      JOINT LeftFoot
      {
        OFFSET 40.6238 0 0
        CHANNELS 3 Zrotation Xrotation Yrotation
        JOINT LeftToeBase
        {
          OFFSET 12.7242 0 0
          CHANNELS 3 Zrotation Xrotation Yrotation
          End Site
          {
            OFFSET 0 0 0
          }
        }
      }
    }
  }
  JOINT RightUpLeg
  {
    OFFSET -8.2249 1.95398 -2.59336
    CHANNELS 3 Zrotation Xrotation Yrotation
    JOINT RightLeg
    {
      OFFSET 43.5653 0 0
      CHANNELS 3 Zrotation Xrotation Yrotation
      JOINT RightFoot
      {
        OFFSET 40.6238 0 0
        CHANNELS 3 Zrotation Xrotation Yrotation
        JOINT RightToeBase
        {
          OFFSET 12.7242 0 0
          CHANNELS 3 Zrotation Xrotation Yrotation
          End Site
          {
            OFFSET 0 0 0
          }
        }
      }
    }
  }
  JOINT Spine
  {
    OFFSET 0.165834 0.87714 6.61349
    CHANNELS 3 Zrotation Xrotation Yrotation
    JOINT Spine1
    {
      OFFSET 7.38963 1.71661e-005 0
      CHANNELS 3 Zrotation Xrotation Yrotation
      JOINT Spine2
      {
        OFFSET 11.9445 1.14441e-005 0
        CHANNELS 3 Zrotation Xrotation Yrotation
        JOINT Spine3
        {
          OFFSET 14.7254 4.19617e-005 0
          CHANNELS 3 Zrotation Xrotation Yrotation
          JOINT Spine4
          {
            OFFSET 10.9679 0 0
            CHANNELS 3 Zrotation Xrotation Yrotation
            JOINT RightShoulder
            {
              OFFSET 2.46616 -1.6653 3.69651
              CHANNELS 3 Zrotation Xrotation Yrotation
              JOINT RightArm
              {
                OFFSET 13.0012 0 0
                CHANNELS 3 Zrotation Xrotation Yrotation
                JOINT RightForeArm
                {
                  OFFSET 28.7848 1.52588e-005 0
                  CHANNELS 3 Zrotation Xrotation Yrotation
                  JOINT RightHand
                  {
                    OFFSET 26.5688 1.52588e-005 0
                    CHANNELS 3 Zrotation Xrotation Yrotation
                    End Site
                    {
                      OFFSET 0 0 0
                    }
                  }
                }
              }
            }
            JOINT LeftShoulder
            {
              OFFSET 2.38034 -1.29275 -3.7523
              CHANNELS 3 Zrotation Xrotation Yrotation
              JOINT LeftArm
              {
                OFFSET 16.3182 6.10351e-005 0
                CHANNELS 3 Zrotation Xrotation Yrotation
                JOINT LeftForeArm
                {
                  OFFSET 27.0901 0 0
                  CHANNELS 3 Zrotation Xrotation Yrotation
                  JOINT LeftHand
                  {
                    OFFSET 24.5451 1.52588e-005 0
                    CHANNELS 3 Zrotation Xrotation Yrotation
                    End Site
                    {
                      OFFSET 0 0 0
                    }
                  }
                }
              }
            }
            JOINT Neck
            {
              OFFSET 5.0226 -0.0266342 0
              CHANNELS 3 Zrotation Xrotation Yrotation
              JOINT Head
              {
                OFFSET 6.69363 2.86102e-005 0
                CHANNELS 3 Zrotation Xrotation Yrotation
                End Site
                {
                  OFFSET 0 0 0
                }
              }
            }
          }
        }
      }
    }
  }
}
MOTION
Frames:	17
Frame Time:	0.0416667
43.0239 87.839 -96.5767 -46.4108 -80.7031 -44.1872 -167.992 15.7857 92.7415 -71.3252 8.05759 -0.877648 54.723 1.07204 3.1847 39.7202 9.28768 12.1828 175.664 39.6184 96.8003 -52.6188 7.1738 0.286594 81.0107 -8.47096 -3.59225 40.8745 0.296745 -7.48898 -0.302407 8.64768 -90.8616 9.56828 -0.99148 -1.63149 -2.10325 -1.06232 -1.58629 -24.6312 -0.455419 -1.85398 -4.61851 -0.455416 -1.85398 89.8068 -44.4977 -102.503 30.1188 -9.25909 12.7984 -1.06307 -15.4797 -47.3886 -25.7182 -2.26307 5.14523 -97.8215 -43.9726 65.0142 -13.5931 11.1333 -11.3875 4.71616 1.75109 -57.2844 18.8678 1.00883 1.49811 13.867 4.12581 1.18388 7.70927 4.46922 6.49691 
42.7079 87.3229 -90.4772 -53.3177 -76.5047 -50.537 -166.001 26.8251 91.2811 -76.1315 8.20109 -1.22445 58.8566 4.47371 4.92513 43.5109 12.8314 11.366 176.317 38.8501 97.8709 -55.2466 6.97567 -0.151746 81.4125 -9.21913 -3.86574 40.0593 0.342967 -6.4072 0.110858 8.80776 -90.8917 9.2535 -0.178618 -1.75342 -2.41863 -0.255611 -1.74388 -24.9443 0.35652 -1.72608 -4.93169 0.356519 -1.72607 89.771 -44.7891 -102.478 27.6343 -8.5115 4.72569 -2.35402 -16.011 -47.5305 -25.6507 -2.25915 5.18668 -98.8665 -44.7025 63.6854 -16.1679 11.1136 -6.12532 3.91557 2.68588 -52.0963 20.6081 1.29204 2.41171 13.7654 4.40286 1.36907 9.69034 4.79396 6.41506 
42.6452 86.5965 -84.5912 -56.0406 -72.5372 -52.6018 -164.566 38.2875 89.9936 -77.4607 6.36159 -1.23321 62.9308 7.22504 5.09468 44.3334 14.1762 15.3233 175.868 37.8984 98.5852 -57.5535 6.51813 -0.0926034 82.8984 -10.6644 -4.30352 40.1521 0.409137 -4.53926 0.435816 8.96183 -90.8967 8.95056 0.469725 -1.80729 -2.72159 0.389754 -1.82621 -25.2493 0.991113 -1.58266 -5.23662 0.991117 -1.58267 88.7449 -45.2424 -104.017 24.8321 -7.41025 -3.26475 -3.05437 -16.3431 -47.4088 -27.1013 -2.20121 4.50327 -99.9317 -45.5356 62.3933 -19.1996 11.0296 -0.0612293 3.64307 3.72002 -47.3468 20.4675 1.46077 3.2987 14.8239 4.95013 1.96094 11.2539 5.14722 5.65872 
42.6279 85.8122 -78.5886 -62.1741 -68.6867 -58.1047 -163.814 47.2949 90.1296 -74.5127 6.08073 -1.50073 66.6225 9.15964 5.95424 43.5648 13.6706 17.2922 176.253 35.3275 98.5333 -59.579 4.2432 -0.600944 84.7654 -12.3505 -4.75502 40.4377 0.363492 -5.91812 0.812222 9.21943 -90.783 8.44188 1.27521 -1.62685 -3.22953 1.20239 -1.68139 -25.765 1.70515 -1.16842 -5.75234 1.70516 -1.16843 87.3778 -44.7104 -106.385 23.1771 -6.64872 -10.2616 -3.07871 -14.7795 -49.6435 -33.432 -2.34869 3.33314 -99.903 -45.7097 62.506 -22.94 12.0732 5.20858 2.4022 4.75251 -40.8326 19.8469 1.22456 2.3211 17.4174 5.5735 2.15692 10.6501 5.51376 4.94131 
42.5385 84.7565 -71.9913 -66.3731 -64.7004 -63.049 -163.392 54.3428 90.6904 -68.004 7.24133 -2.39789 68.8156 9.62732 7.35077 44.2728 14.2779 16.4156 177.267 32.52 96.619 -61.7972 3.06579 -1.74084 87.1635 -14.4015 -5.20723 43.1175 0.340034 -6.05349 1.13357 9.38194 -90.4766 8.11993 2.05353 -1.05885 -3.5499 2.00493 -1.14824 -26.0974 2.27678 -0.392463 -6.08478 2.27677 -0.39248 86.5082 -43.3559 -108.24 22.2795 -6.73248 -16.1549 -4.55414 -13.8029 -55.8496 -38.5083 -2.48024 2.72852 -99.0131 -45.6034 63.811 -28.2043 15.0346 12.0343 2.21131 7.76821 -37.2248 18.9385 1.27677 2.89539 20.9011 6.18872 2.11059 8.98906 5.95031 4.76353 
42.3757 83.4976 -64.6361 -69.6349 -60.9427 -67.0871 -163.288 59.7612 93.0826 -59.9532 5.25281 -3.70515 71.1113 8.99588 4.32547 43.8809 13.9222 16.7543 178.231 29.2856 93.9828 -64.3282 1.5827 -3.05057 87.5272 -15.2439 -5.44172 48.5458 -0.0570861 -9.57202 1.5097 9.31938 -90.1076 8.24087 2.96587 -0.387326 -3.42679 2.94594 -0.517604 -25.9887 2.94503 0.522742 -5.97602 2.94503 0.522739 87.645 -41.3607 -107.021 23.5621 -8.85822 -20.5377 -9.82723 -11.5755 -67.5902 -40.9068 -1.85445 0.731133 -97.3538 -44.6674 65.9977 -36.2254 18.7675 21.8588 3.22066 12.1746 -38.1507 19.1408 1.45202 3.73346 23.4853 6.21688 0.455689 6.39891 6.47101 6.25367 
41.7834 82.3793 -55.9973 -70.9747 -58.0164 -70.1071 -162.882 62.7312 95.3948 -50.2206 4.18066 -6.11969 73.0392 8.81041 2.7565 43.2683 13.6179 19.1777 179.241 24.8793 89.821 -65.2061 0.36751 -4.87882 86.0953 -14.947 -5.51335 54.496 -0.564908 -11.4846 1.92586 8.97004 -89.7005 8.93095 3.97518 0.321576 -2.73392 3.98547 0.146009 -25.3125 3.6945 1.50299 -5.29982 3.69451 1.50301 90.5211 -36.8696 -103.431 27.8569 -13.3949 -23.4836 -16.1399 -9.56951 -80.3778 -44.4477 -1.22625 -0.953181 -95.3746 -43.2077 68.5708 -46.9219 21.9832 35.8739 5.60938 14.1942 -45.4983 19.7531 1.50877 3.79644 25.1 5.51428 -0.0113423 3.45031 5.77503 6.27382 
41.0132 81.616 -45.9327 -72.49 -57.1705 -73.3352 -163.751 62.9678 98.3584 -40.7443 4.01993 -8.93974 72.049 7.36156 3.16078 46.8025 17.3541 18.8471 179.313 17.5718 84.7465 -63.3869 -2.68211 -7.28127 82.5499 -13.2573 -5.33079 59.4279 -1.35925 -14.0701 2.30361 8.55224 -89.2801 9.74953 4.91788 1.0417 -1.91237 4.95893 0.823713 -24.5062 4.37711 2.47402 -4.49357 4.37711 2.474 93.3231 -28.9722 -100.405 35.9079 -18.2487 -22.8399 -25.6505 -3.86501 -92.0414 -44.3716 -1.6347 0.510645 -92.1405 -38.2391 72.2053 -60.0834 20.5846 50.1163 8.08136 12.1216 -54.5443 20.4441 1.53916 3.6923 24.709 4.07961 -1.87322 1.18332 4.86986 6.15402 
40.1239 81.6532 -34.27 -76.9953 -59.0519 -77.5831 -165.357 59.4496 100.316 -34.0116 3.00173 -9.25812 70.7082 6.20933 4.04487 48.9048 19.2609 17.4457 176.924 5.45022 80.2672 -56.5049 -8.81412 -10.0764 73.329 -8.77925 -4.38485 65.556 -2.07286 -15.0985 2.56186 8.3862 -89.0075 10.0718 5.55732 1.50714 -1.58781 5.61822 1.26037 -24.1931 4.84706 3.11078 -4.18048 4.84705 3.11077 95.2938 -21.7957 -98.2598 42.2406 -22.5791 -22.0446 -29.1892 2.5875 -99.569 -44.011 -1.83413 1.17508 -90.5485 -31.1302 72.6372 -69.9962 14.1926 58.0961 10.4531 10.4114 -59.7384 20.8677 1.4238 2.99773 23.3708 1.91603 -5.68672 -1.39565 3.86163 7.19806 
39.9264 82.6414 -21.8162 -81.0919 -61.612 -81.1645 -166.392 54.2999 99.1595 -31.5626 1.49414 -7.39929 70.3899 6.97056 4.07655 47.5933 17.9463 17.686 173.752 -5.01008 76.6104 -47.3771 -11.4737 -12.1306 47.9758 1.53995 1.98991 54.4588 -0.912147 -13.5456 2.57872 8.14753 -88.7761 10.5348 5.69845 1.92273 -1.12463 5.77752 1.66933 -23.7261 4.85696 3.54924 -3.71343 4.85696 3.54923 95.8465 -16.7293 -98.4694 45.0498 -25.3468 -22.1267 -29.5117 3.5455 -101.758 -46.2159 -2.18812 1.82049 -90.148 -26.1243 71.5984 -74.2309 5.94152 60.8401 12.1742 9.27377 -62.0009 22.5788 1.78418 4.07539 19.8465 0.151567 -11.2018 -3.10113 3.48911 10.0238 
40.0735 83.6952 -9.63302 -81.0305 -64.225 -77.7642 -168.98 52.3517 99.7604 -35.0568 4.42511 -4.77892 66.8571 4.78261 3.82761 47.8276 17.5869 14.8128 174.67 -9.52532 79.5377 -47.6527 -12.2771 -12.0106 44.2599 3.13618 3.08856 39.4018 0.233401 -10.441 2.60387 7.61718 -88.8705 11.6059 5.7087 1.66004 -0.0532079 5.7762 1.40642 -22.66 4.94554 3.30219 -2.64739 4.94554 3.3022 96.0445 -21.4233 -96.5967 39.4846 -28.4765 -23.9064 -27.4776 0.061825 -98.3568 -44.1222 -1.6032 0.460503 -89.839 -26.125 72.2204 -71.0101 1.6575 59.9587 9.1668 5.91566 -62.1911 26.091 2.11826 4.32298 16.8679 -1.73949 -17.3243 -3.67239 2.94272 12.2626 
39.9287 84.5872 0.435531 -75.5558 -66.2171 -71.3029 -169.665 54.3278 98.6966 -43.9911 11.0438 -4.24939 63.982 2.56908 3.18282 47.2083 16.9564 14.7709 177.424 -2.96513 83.594 -57.972 -6.34928 -8.62517 47.2841 1.10064 1.21011 39.8381 0.187821 -11.3179 2.52568 7.36915 -88.9027 12.106 5.53927 1.58027 0.446171 5.60344 1.33425 -22.157 4.80794 3.17496 -2.14438 4.80794 3.17497 95.2324 -29.0427 -96.4831 33.9446 -26.8429 -26.1401 -21.599 -5.36221 -91.9259 -44.4674 -1.95381 0.990216 -91.4598 -37.415 73.1676 -57.3178 6.85856 51.2531 5.0871 3.00259 -62.2356 32.3033 2.85746 5.05645 21.3876 -1.87753 -10.7689 -5.9963 1.33621 4.15801 
39.2866 85.6769 8.89928 -78.1073 -71.0234 -76.6695 -168.605 48.3773 92.9577 -46.9379 13.284 -3.94549 61.4331 1.46976 3.93228 46.2151 15.0695 9.36047 175.776 5.26318 84.2708 -70.4934 4.24056 -4.68335 53.8153 -2.09748 -1.24846 40.4393 0.146804 -11.6142 2.2844 7.91738 -88.5731 10.9884 5.2085 2.3461 -0.673756 5.30669 2.11411 -23.2527 4.26277 3.80431 -3.2401 4.26277 3.8043 91.5525 -39.3215 -100.865 27.5463 -18.8967 -27.0218 -11.5326 -8.09566 -81.9196 -51.114 -1.69072 -0.75863 -98.5357 -46.447 64.857 -40.1136 15.3632 33.1804 0.134725 0.665072 -62.2781 38.949 3.09095 3.94995 26.8353 -3.07081 -5.10156 -8.67527 -1.17947 0.0297239 
39.6005 87.1878 16.7727 -86.542 -75.1508 -85.4749 -169.074 41.3121 89.9987 -49.1655 13.4144 -3.50295 63.4431 4.29242 6.57832 37.6343 7.03694 2.99463 173.031 15.0323 86.4771 -75.7486 12.7804 -1.75142 61.4902 -5.36282 -3.14404 39.2167 0.223561 -10.9391 2.05481 8.23086 -88.5271 10.3577 4.76763 2.50972 -1.30647 4.87345 2.29714 -23.8707 3.79333 3.8271 -3.85804 3.79332 3.8271 89.8502 -39.0927 -103.958 25.3373 -13.9999 -24.6309 -4.26937 -7.42878 -84.5727 -53.475 -1.52544 -1.88099 -99.5231 -48.1366 64.0101 -20.9128 20.8523 7.6636 22.183 13.2428 -64.6403 28.0422 3.96825 10.4776 26.3873 -4.20924 -5.72998 -8.97654 -2.10796 0.440816 
40.6791 88.5521 24.2745 -89.8856 -78.5787 -86.8697 -170.726 36.8179 89.4 -51.3131 12.7717 -2.27186 65.6015 6.68037 7.53599 33.609 3.69927 3.17514 173.319 27.0766 91.3195 -75.0932 9.30604 -0.633985 64.2138 -5.63215 -3.23273 43.89 0.0470672 -10.4511 1.69599 8.2589 -88.752 10.3175 3.94976 2.13728 -1.34895 4.03997 1.96118 -23.9029 3.12506 3.22577 -3.8903 3.12506 3.22578 91.4931 -35.4115 -102.087 21.0412 -6.26954 -23.9563 -16.7721 -0.87279 -96.8929 -51.6555 -1.46432 -1.19015 -101.443 -46.5062 60.5237 -4.91232 9.07244 -8.99934 0.418272 3.9347 -65.6044 70.8741 6.91627 5.0464 23.2236 -4.22005 -8.38013 -6.74011 -1.45268 0.497666 
41.1693 90.2265 31.0993 -95.0177 -83.6234 -90.4279 -170.443 31.3109 89.7282 -49.9374 15.835 -2.36707 66.3034 8.66148 9.05804 35.0721 4.92251 2.42983 174.242 40.9867 93.7674 -74.0232 0.699185 -0.701858 64.4849 -4.17871 -2.42303 48.2414 -0.417163 -13.0094 0.850438 8.25831 -89.0237 10.3426 2.14134 1.75688 -1.32768 2.21657 1.66092 -23.8614 1.51449 2.31908 -3.84878 1.51448 2.31907 94.5498 -27.0887 -98.4001 21.4838 8.76298 -26.9429 -19.9856 1.84986 -106.459 -54.2876 -1.97209 -0.0549848 -99.4482 -40.0415 60.8476 3.28702 -2.15857 -24.4285 4.32421 1.89558 -71.7823 78.7753 3.81842 -0.212778 19.2205 -2.57828 -10.6339 -6.49342 0.443199 2.32975 
41.9466 93.2164 38.4762 165.115 -88.7287 174.951 -170.749 24.2772 94.5849 -45.729 20.6478 -1.169 66.9748 9.84317 7.6391 35.6887 5.42883 1.83031 170.477 52.0943 97.3289 -73.8733 0.931972 0.544779 66.7157 -4.20334 -2.33142 50.6574 -0.83392 -15.1548 -0.154835 8.21167 -89.6762 10.4532 -0.160097 0.65223 -1.21794 -0.131233 0.658642 -23.7519 -0.348732 0.573962 -3.73928 -0.348725 0.57397 96.8683 -19.2829 -95.1474 24.1581 26.2777 -30.4347 -13.9551 -0.441161 -110.09 -56.9784 -0.864334 -2.65554 -94.9789 -29.6161 63.7873 8.33948 -18.2735 -34.4277 -0.156879 -1.19106 -77.3722 39.9484 0.868037 -1.63276 16.899 -0.988997 -12.2396 -7.31828 2.13186 4.10486 
